<?xml version="1.0" encoding="utf-8"?>
<!-- Generator: Adobe Illustrator 19.0.0, SVG Export Plug-In . SVG Version: 6.00 Build 0)  -->
<!DOCTYPE svg PUBLIC "-//W3C//DTD SVG 1.1//EN" "http://www.w3.org/Graphics/SVG/1.1/DTD/svg11.dtd">
<svg version="1.1" id="Layer_1" xmlns="http://www.w3.org/2000/svg" xmlns:xlink="http://www.w3.org/1999/xlink" x="0px" y="0px"
	 viewBox="0 0 18.9 18.3" enable-background="new 0 0 18.9 18.3" xml:space="preserve">
<path id="XMLID_8_" fill="#CCCCCC" d="M18.6,16.6l-5.8-5.8C13.6,9.8,14,8.4,14,7c0-3.9-3.1-7-7-7S0,3.1,0,7s3.1,7,7,7
	c1.7,0,3.3-0.6,4.5-1.6l5.7,5.7c0.2,0.2,0.5,0.3,0.7,0.3s0.5-0.1,0.7-0.3C19,17.6,19,17,18.6,16.6z M7,12c-2.8,0-5-2.2-5-5
	c0-2.8,2.2-5,5-5s5,2.2,5,5C12,9.8,9.8,12,7,12z"/>
</svg>
