<?xml version="1.0" encoding="utf-8"?>
<!-- Generator: Adobe Illustrator 19.0.0, SVG Export Plug-In . SVG Version: 6.00 Build 0)  -->
<!DOCTYPE svg PUBLIC "-//W3C//DTD SVG 1.1//EN" "http://www.w3.org/Graphics/SVG/1.1/DTD/svg11.dtd">
<svg version="1.1" id="Layer_1" xmlns="http://www.w3.org/2000/svg" xmlns:xlink="http://www.w3.org/1999/xlink" x="0px" y="0px"
	 viewBox="0 0 64.7 71.1" enable-background="new 0 0 64.7 71.1" xml:space="preserve">
<g>
	<g id="XMLID_80_">
		<g id="XMLID_87_">
			<path id="XMLID_88_" fill="#CCCCCC" d="M23.3,71.1l-3.6-1.6l21.1-48l-1.3,0.4l-1.1-3.8l1.9-0.5c0.9-0.3,1.7-0.5,2.6-0.7L50,0.7
				l1-0.2C57.5-1,63.4,1.1,64.5,5.2c0.8,3.1-0.7,9.1-18.7,14.9L23.3,71.1z M52.8,4.1l-4.9,11.1C59,11.1,61,7.4,60.7,6.2
				c-0.2-0.7-1.1-1.4-2.5-1.8C56.6,3.9,54.7,3.8,52.8,4.1z"/>
		</g>
		<g id="XMLID_83_">
			<path id="XMLID_84_" fill="#CCCCCC" d="M51.8,61.7L51.8,61.7c-1.2,0-2.4-0.4-3.3-1.1c-1.3-1-2-2.7-2-4.5c0-1.7,0.7-3.4,1.8-4.8
				c1.5-1.9,3.7-3,5.8-3c1.2,0,2.4,0.4,3.3,1.1c2.5,2,2.6,6.2,0.1,9.3C56.1,60.5,53.9,61.7,51.8,61.7z M54.1,52.2
				c-0.9,0-2,0.6-2.7,1.5c-0.6,0.7-0.9,1.6-1,2.4c0,0.4,0,1,0.5,1.4c0.2,0.2,0.5,0.3,0.9,0.3c0.9,0,2-0.6,2.7-1.5
				c1.2-1.5,1.2-3.2,0.5-3.8C54.8,52.2,54.5,52.2,54.1,52.2z"/>
		</g>
		<g id="XMLID_81_">
			<path id="XMLID_82_" fill="#CCCCCC" d="M9.6,45.1c-1.5,0-2.9-0.2-4.1-0.7c-2.4-0.9-4.2-2.8-5.1-5.4C-0.3,37-0.1,34.9,1,32.9
				c1.2-2.2,3.6-4.3,7-6.2c-0.1-0.1-0.3-0.2-0.4-0.2c-2.5-1.6-3.3-4.2-2.2-7.2c1.9-5.4,9.9-11.9,16-11.3c1.7,0.1,3.1,0.8,4.1,1.9
				C25.8,8.9,26.3,8,26.7,7l0.8-1.8L31,6.7l-0.8,1.8c0,0-0.7,1.7-1.5,3.4c-0.4,1-0.8,1.8-1,2.4c-0.2,0.3-0.3,0.6-0.4,0.8
				c-0.8,1.6-2,1.4-2.4,1.3c-0.8-0.2-1.3-0.6-1.4-1.7c-0.4-2.4-1.5-2.8-2.5-2.9c-3.8-0.3-10.5,4.5-11.9,8.7c-0.6,1.6,0,2.2,0.7,2.7
				c0,0,1.1,0.7,6-0.2c1.4-0.2,2.7-0.5,3.7-0.8c0.9-0.3,1.5-0.4,1.6-0.4l1,3.8c-0.1,0-0.7,0.2-1.8,0.5c-4.8,1.4-13.5,4.6-15.8,8.7
				c-0.5,1-0.6,1.9-0.3,3c0.5,1.5,1.4,2.5,2.8,3c4.3,1.6,11.8-1.7,14.4-3.2l1.7-1l1.9,3.4l-1.7,1c-0.1,0.1-2.7,1.5-6.1,2.7
				C14.3,44.7,11.8,45.1,9.6,45.1z"/>
		</g>
	</g>
</g>
</svg>
