<?xml version="1.0" encoding="utf-8"?>
<!-- Generator: Adobe Illustrator 17.1.0, SVG Export Plug-In . SVG Version: 6.00 Build 0)  -->
<!DOCTYPE svg PUBLIC "-//W3C//DTD SVG 1.1//EN" "http://www.w3.org/Graphics/SVG/1.1/DTD/svg11.dtd">
<svg version="1.1" id="Layer_1" xmlns="http://www.w3.org/2000/svg" xmlns:xlink="http://www.w3.org/1999/xlink" x="0px" y="0px"
	 viewBox="0 0 432 432" enable-background="new 0 0 432 432" xml:space="preserve">
<path d="M318.6,360.8C318.6,360.8,318.6,360.8,318.6,360.8c-6.8,0-13-2.1-18.1-6.2c-7.1-5.7-11-14.7-10.7-24.7
	c0.2-9.1,3.8-18.3,10-26c8.2-10.3,20-16.4,31.6-16.4c6.8,0,13,2.1,18.1,6.2c13.9,11.1,14.2,33.9,0.7,50.7
	C341.9,354.7,330.1,360.8,318.6,360.8z M331.4,309c-4.9,0-10.8,3.3-14.9,8.4c-3.2,4-5.1,8.8-5.3,13.2c0,1.9,0.2,5.4,2.7,7.4
	c1.2,1,2.8,1.5,4.7,1.5c4.9,0,10.8-3.3,14.9-8.4c6.5-8.1,6.6-17.3,2.6-20.6C334.8,309.5,333.3,309,331.4,309z"/>
</svg>
