<?xml version="1.0" encoding="utf-8"?>
<!-- Generator: Adobe Illustrator 18.1.1, SVG Export Plug-In . SVG Version: 6.00 Build 0)  -->
<!DOCTYPE svg PUBLIC "-//W3C//DTD SVG 1.1//EN" "http://www.w3.org/Graphics/SVG/1.1/DTD/svg11.dtd">
<svg version="1.1" id="Layer_1" xmlns="http://www.w3.org/2000/svg" xmlns:xlink="http://www.w3.org/1999/xlink" x="0px" y="0px"
	 viewBox="0 0 72 72" enable-background="new 0 0 72 72" xml:space="preserve">
<path fill="#AAA" d="M53.1,60.1L53.1,60.1c-1.1,0-2.2-0.3-3-1c-1.2-1-1.8-2.5-1.8-4.1c0-1.5,0.6-3,1.7-4.3
	c1.4-1.7,3.3-2.7,5.3-2.7c1.1,0,2.2,0.3,3,1c2.3,1.9,2.4,5.7,0.1,8.5C57,59.1,55,60.1,53.1,60.1z M55.2,51.5c-0.8,0-1.8,0.5-2.5,1.4
	c-0.5,0.7-0.8,1.5-0.9,2.2c0,0.3,0,0.9,0.5,1.2c0.2,0.2,0.5,0.2,0.8,0.2c0.8,0,1.8-0.5,2.5-1.4c1.1-1.3,1.1-2.9,0.4-3.4
	C55.8,51.6,55.5,51.5,55.2,51.5z"/>
</svg>
