<?xml version="1.0" encoding="utf-8"?>
<!-- Generator: Adobe Illustrator 18.1.1, SVG Export Plug-In . SVG Version: 6.00 Build 0)  -->
<!DOCTYPE svg PUBLIC "-//W3C//DTD SVG 1.1//EN" "http://www.w3.org/Graphics/SVG/1.1/DTD/svg11.dtd">
<svg version="1.1" id="Layer_1" xmlns="http://www.w3.org/2000/svg" xmlns:xlink="http://www.w3.org/1999/xlink" x="0px" y="0px"
	 viewBox="0 0 72 72" enable-background="new 0 0 72 72" xml:space="preserve">
<path fill="#AAA" d="M27.2,68.8l-3.3-1.4l19.2-43.6L41.9,24l-1-3.4l1.7-0.5c0.8-0.2,1.6-0.4,2.3-0.7l6.5-14.7l0.9-0.2
	c5.9-1.4,11.3,0.5,12.3,4.3c0.7,2.9-0.7,8.2-17,13.5L27.2,68.8z M54,7.8l-4.4,10c10.1-3.7,11.9-7.1,11.6-8.2c-0.2-0.7-1-1.3-2.3-1.6
	C57.5,7.6,55.8,7.6,54,7.8z"/>
<path fill="#AAA" d="M14.8,45.1c-1.4,0-2.6-0.2-3.7-0.6c-2.2-0.8-3.8-2.5-4.6-4.9c-0.7-1.9-0.5-3.8,0.5-5.6
	c1.1-2,3.3-3.9,6.4-5.6c-0.1-0.1-0.2-0.1-0.3-0.2c-2.2-1.5-3-3.9-2-6.6c1.7-4.9,9-10.8,14.5-10.3c1.5,0.1,2.8,0.8,3.7,1.8
	c0.4-0.8,0.7-1.7,1.1-2.6L31,8.8l3.3,1.4l-0.7,1.6c0,0-0.6,1.6-1.3,3.1c-0.4,0.9-0.7,1.6-1,2.2c-0.1,0.3-0.3,0.6-0.4,0.8
	c-0.7,1.4-1.8,1.3-2.2,1.2c-0.7-0.2-1.2-0.8-1.3-1.6C27,15.4,26,15,25.1,14.9c-3.4-0.3-9.5,4.1-10.8,7.9c-0.5,1.5,0,2,0.6,2.4
	c0,0,1,0.6,5.5-0.1c1.3-0.2,2.5-0.5,3.3-0.7c0.9-0.2,1.4-0.4,1.4-0.4l0.9,3.4c-0.1,0-0.7,0.2-1.6,0.4C20,29.1,12.1,32,10,35.8
	c-0.5,0.9-0.6,1.8-0.2,2.7c0.5,1.4,1.3,2.3,2.5,2.7c3.9,1.5,10.7-1.6,13.1-2.9l1.6-0.9l1.8,3.1l-1.6,0.9c-0.1,0.1-2.4,1.4-5.5,2.4
	C19.1,44.7,16.8,45.1,14.8,45.1z"/>
</svg>
