<?xml version="1.0" encoding="utf-8"?>
<!-- Generator: Adobe Illustrator 17.1.0, SVG Export Plug-In . SVG Version: 6.00 Build 0)  -->
<!DOCTYPE svg PUBLIC "-//W3C//DTD SVG 1.1//EN" "http://www.w3.org/Graphics/SVG/1.1/DTD/svg11.dtd">
<svg version="1.1" id="Layer_1" xmlns="http://www.w3.org/2000/svg" xmlns:xlink="http://www.w3.org/1999/xlink" x="0px" y="0px"
	 viewBox="0 0 432 432" enable-background="new 0 0 432 432" xml:space="preserve">
<path d="M163.2,412.6l-19.6-8.6l115.2-261.7l-7.2,2l-5.8-20.6l10.3-2.9c4.9-1.4,9.5-2.7,14-4.1l38.8-88.2l5.2-1.2
	c35.6-8.2,68,3.1,73.8,25.7c4.4,17.2-4,49.5-102.1,81.2L163.2,412.6z M324.1,47.1l-26.5,60.3C358.1,85,368.9,65,367.2,58.2
	c-1-3.9-6.2-7.7-13.7-9.9C345.1,45.8,334.6,45.4,324.1,47.1z"/>
<path d="M88.5,270.8c-8.2,0-15.7-1.2-22.2-3.7c-13.2-5-22.8-15.2-27.8-29.4c-3.9-11.2-2.9-22.8,3-33.4c6.6-12.1,19.5-23.4,38.4-33.7
	c-0.8-0.4-1.5-0.8-2.1-1.2c-13.4-8.7-17.8-23.1-12.2-39.5c10.2-29.5,54.2-64.8,87.1-61.8c9.1,0.8,16.6,4.5,22.3,10.5
	c2.1-5,4.4-10.4,6.6-15.6l4.1-9.9l19.7,8.3l-4.1,9.9c0,0-3.9,9.4-8,18.8c-2.4,5.5-4.3,9.8-5.7,13c-0.8,1.9-1.6,3.4-2.1,4.5
	c-4.2,8.6-10.7,7.9-13.3,7.2c-4.4-1.2-7.5-4.9-7.9-9.4c-2.2-13.2-8.5-15.5-13.7-15.9c-20.7-1.8-57.1,24.8-65,47.5
	c-3,8.8-0.1,12.2,3.6,14.6c0.2,0.2,6.2,3.8,32.8-0.9c7.6-1.3,14.7-3,19.9-4.3c5.1-1.4,8.3-2.2,8.6-2.3l5.5,20.7
	c-0.3,0.1-4,1.2-9.8,2.6c-26.1,7.4-73.9,24.9-86.2,47.4c-3,5.4-3.5,10.6-1.5,16.1c2.9,8.4,7.7,13.6,15.1,16.4
	c23.2,8.8,64.4-9.5,78.3-17.3l9.3-5.2l10.5,18.7l-9.3,5.2c-0.6,0.3-14.6,8.2-33,14.5C114.3,268.1,100.5,270.8,88.5,270.8z"/>
</svg>
