<?xml version="1.0" encoding="utf-8"?>
<!-- Generator: Adobe Illustrator 18.1.1, SVG Export Plug-In . SVG Version: 6.00 Build 0)  -->
<!DOCTYPE svg PUBLIC "-//W3C//DTD SVG 1.1//EN" "http://www.w3.org/Graphics/SVG/1.1/DTD/svg11.dtd">
<svg version="1.1" id="Layer_1" xmlns="http://www.w3.org/2000/svg" xmlns:xlink="http://www.w3.org/1999/xlink" x="0px" y="0px"
	 viewBox="0.1 23.8 71.9 24.3" enable-background="new 0.1 23.8 71.9 24.3" xml:space="preserve">
<g id="Epilogue" display="none">
</g>
<g id="Layer_2" display="none">
</g>
<g id="Layer_3" display="none">
</g>
<g id="Layer_4" display="none">
</g>
<g id="Layer_5" display="none">
</g>
<g id="Layer_6" display="none">
</g>
<g id="Layer_7" display="none">
</g>
<g id="Layer_8" display="none">
</g>
<g id="Layer_9">
	<g>
		<path d="M13.3,35.4c0,1.4-0.2,2.6-0.7,3.5c-0.6,0.9-1.5,0.9-1.7,0.9c-1.7,0-2.5-1.4-2.5-4.3c0-2,0.4-4.4,2.5-4.4
			C12.8,31.1,13.3,33,13.3,35.4z M9.4,35.3c0,2.8,0.6,3.7,1.5,3.7c1.1,0,1.5-1.3,1.5-3.5c0-2.4-0.4-3.5-1.5-3.5
			C9.8,31.9,9.4,33,9.4,35.3z"/>
		<path d="M14.6,33.4h0.8v0.9c0.1-0.3,0.4-1.1,1.4-1.1c0.5,0,0.9,0.3,1.2,0.6c0.2,0.4,0.2,1,0.2,1.8v3.9h-0.8v-3.9
			c0-0.8,0-1.6-0.8-1.6c-0.9,0-1,1.3-1,2v3.6h-0.9V33.4z"/>
		<path d="M25.9,39.6l-1.8-4.4l-0.9,1.6v2.8h-0.9v-8.4h0.9v4.2l2.4-4.2h1l-1.8,3l2.2,5.3H25.9z"/>
		<path d="M28.4,31.3v1h-0.9v-1C27.5,31.3,28.4,31.3,28.4,31.3z M27.5,33.4h0.9v6.2h-0.9V33.4z"/>
		<path d="M32.6,35.5c-0.1-0.6-0.3-1.4-1-1.4c-0.7,0-1,0.6-1,2.5c0,1.5,0.2,2.5,1,2.5c0.6,0,0.9-0.4,1-1.4l0.8,0.1
			c-0.2,0.9-0.4,2-1.8,2c-1.7,0-2-1.6-2-3.1c0-1.7,0.3-3.4,2-3.4c1.2,0,1.7,0.8,1.8,2L32.6,35.5z"/>
		<path d="M34.4,31.3h0.9v5.2l1.7-3h0.9l-1.4,2.3l1.6,3.9h-1l-1.1-3l-0.7,1.1v1.9h-0.9C34.4,39.6,34.4,31.3,34.4,31.3z"/>
		<path d="M41.2,35c-0.1-0.5-0.3-1-1-1c-0.5,0-0.8,0.3-0.8,0.8c0,0.6,0.4,0.8,0.9,1.2c1.3,0.6,1.7,0.9,1.7,1.9
			c0,1.2-0.7,1.8-1.8,1.8c-1.7,0-1.9-1.3-1.9-1.7l0.8-0.2c0.1,0.4,0.2,1.2,1.2,1.2c0.6,0,0.9-0.4,0.9-0.9c0-0.7-0.3-0.8-1.3-1.3
			c-0.8-0.4-1.4-0.8-1.4-1.8c0-0.7,0.4-1.7,1.7-1.7c1.4,0,1.6,1.1,1.7,1.6L41.2,35z"/>
		<path d="M42.3,33.4H43v-1.6l0.9-0.1v1.7h1v0.7h-1v3.3c0,1,0.1,1.3,0.7,1.3c0.2,0,0.3,0,0.5-0.1v0.7c-0.1,0.1-0.3,0.1-0.7,0.1
			c-1.3,0-1.4-0.9-1.4-2.1v-3.3h-0.7V33.4z"/>
		<path d="M48.7,39.6c-0.1-0.4-0.1-0.7-0.1-0.9c-0.2,0.5-0.5,1-1.4,1c-1.3,0-1.6-1.1-1.6-1.8c0-0.9,0.4-1.7,1.3-2
			c0.6-0.2,1-0.2,1.7-0.2c0-1,0-1.8-0.9-1.8c-0.8,0-0.9,0.6-1,1.2l-0.8-0.2c0.1-0.5,0.4-1.7,1.9-1.7c0.5,0,1,0.1,1.4,0.5
			c0.3,0.3,0.4,0.9,0.4,1.9v2.5c0,0.9,0.1,1.2,0.1,1.4L48.7,39.6L48.7,39.6z M46.5,38c0,0.2,0,1.1,0.8,1.1c0.4,0,0.7-0.3,0.9-0.6
			c0.3-0.5,0.3-0.9,0.3-2C47.6,36.4,46.5,36.4,46.5,38z"/>
		<path d="M50.8,33.4h0.8v1.3c0.1-0.4,0.4-1.4,1.3-1.4c0.1,0,0.2,0,0.3,0.1v0.9c-1.5-0.2-1.5,1.3-1.5,2.4v2.9h-0.9V33.4z"/>
		<path d="M53.4,33.4h0.7v-1.6l0.9-0.1v1.7h1v0.7h-1v3.3c0,1,0.1,1.3,0.7,1.3c0.2,0,0.3,0,0.5-0.1v0.7c-0.1,0.1-0.3,0.1-0.7,0.1
			c-1.3,0-1.4-0.9-1.4-2.1v-3.3h-0.7V33.4z"/>
		<path d="M57.7,36.7c0,0.6,0,2.4,1.3,2.4c0.8,0,0.9-0.8,1-1.3l0.8,0.2c-0.3,1-0.7,1.8-1.9,1.8c-1.4,0-2.1-1-2.1-3.1
			c0-1.6,0.5-3.3,2-3.3c2,0,2,2.4,2,3.3H57.7z M59.8,35.9c0-0.7-0.1-1.9-1-1.9c-1,0-1,1.3-1.1,1.9H59.8z"/>
		<path d="M61.8,33.4h0.8v1.3c0.1-0.4,0.4-1.4,1.3-1.4c0.1,0,0.2,0,0.3,0.1v0.9c-1.5-0.2-1.5,1.3-1.5,2.4v2.9h-0.9V33.4z"/>
	</g>
	<g>
		<path d="M69.3,48.2H2.7c-1.5,0-2.6-1.2-2.6-2.6V26.5c0-1.5,1.2-2.6,2.6-2.6h66.7c1.5,0,2.6,1.2,2.6,2.6v19.1
			C71.9,47,70.7,48.2,69.3,48.2z M2.7,24.9c-0.9,0-1.6,0.7-1.6,1.6v19.1c0,0.9,0.7,1.6,1.6,1.6h66.7c0.9,0,1.6-0.7,1.6-1.6V26.5
			c0-0.9-0.7-1.6-1.6-1.6H2.7z"/>
	</g>
</g>
<g id="Layer_10" display="none">
</g>
<g id="Layer_11" display="none">
</g>
<g id="Layer_12" display="none">
</g>
<g id="Layer_13" display="none">
</g>
<g id="Layer_14" display="none">
</g>
</svg>
